<?xml version="1.0" standalone="no"?>
<!DOCTYPE svg PUBLIC "-//W3C//DTD SVG 20010904//EN"
 "http://www.w3.org/TR/2001/REC-SVG-20010904/DTD/svg10.dtd">
<svg version="1.0" xmlns="http://www.w3.org/2000/svg"
 width="16.000000pt" height="16.000000pt" viewBox="0 0 16.000000 16.000000"
 preserveAspectRatio="xMidYMid meet">
<metadata>
Created by potrace 1.11, written by Peter Selinger 2001-2013
</metadata>
<g transform="translate(0.000000,16.000000) scale(0.006667,-0.006667)"
fill="#000000" stroke="none">
<path d="M1690 2259 l-142 -142 283 -283 c274 -274 284 -283 303 -266 10 9 75
73 143 141 l123 123 -146 147 c-81 80 -209 208 -284 284 l-138 137 -142 -141z"/>
<path d="M775 1345 c-628 -630 -630 -632 -642 -686 -7 -30 -15 -67 -18 -84 -2
-16 -29 -151 -59 -300 -31 -148 -54 -270 -52 -272 1 -1 135 24 297 57 162 33
308 63 324 66 17 2 44 8 60 13 22 6 212 189 662 640 l632 631 -69 72 c-39 39
-73 68 -77 64 -5 -3 -280 -279 -613 -612 l-606 -605 -167 -34 c-93 -19 -173
-35 -179 -35 -6 0 -8 13 -3 38 4 20 9 48 12 62 2 13 11 56 19 95 8 38 17 86
20 105 3 19 10 42 14 50 5 8 270 276 590 595 319 319 593 592 607 607 l25 26
-58 59 c-33 32 -66 63 -74 69 -12 8 -136 -111 -645 -621z"/>
<path d="M1094 1166 l-568 -567 37 -36 36 -36 566 566 566 566 -35 37 -35 37
-567 -567z"/>
</g>
</svg>
